<?xml version="1.0" encoding="UTF-8" standalone="no"?>
<svg width="245" height="342" viewBox="0 0 245 342" fill="none" xmlns="http://www.w3.org/2000/svg">
  <!-- Card background -->
  <rect width="245" height="342" rx="15" fill="#f0f0f0"/>
  
  <!-- Card border -->
  <rect x="10" y="10" width="225" height="322" rx="10" stroke="#cccccc" stroke-width="2" fill="#e0e0e0"/>
  
  <!-- Pokemon silhouette -->
  <circle cx="122.5" cy="140" r="70" fill="#d0d0d0"/>
  <path d="M122.5 90 C 100 90, 85 110, 85 140 C 85 170, 100 190, 122.5 190 C 145 190, 160 170, 160 140 C 160 110, 145 90, 122.5 90 Z" fill="#c0c0c0"/>
  
  <!-- Card name area -->
  <rect x="30" y="30" width="140" height="25" rx="5" fill="#c0c0c0"/>
  
  <!-- HP area -->
  <rect x="185" y="30" width="30" height="25" rx="5" fill="#c0c0c0"/>
  
  <!-- Type icon -->
  <circle cx="205" cy="70" r="15" fill="#c0c0c0"/>
  
  <!-- Attack areas -->
  <rect x="30" y="220" width="185" height="30" rx="5" fill="#c0c0c0"/>
  <rect x="30" y="260" width="185" height="30" rx="5" fill="#c0c0c0"/>
  
  <!-- Card info area -->
  <rect x="30" y="300" width="185" height="20" rx="5" fill="#c0c0c0"/>
  
  <!-- Unavailable text -->
  <text x="122.5" y="145" font-family="Arial, sans-serif" font-size="16" font-weight="bold" text-anchor="middle" fill="#808080">Card Unavailable</text>
</svg>
